<?xml version="1.0" standalone="no"?>
<!DOCTYPE svg PUBLIC "-//W3C//DTD SVG 20010904//EN"
 "http://www.w3.org/TR/2001/REC-SVG-20010904/DTD/svg10.dtd">
<svg version="1.0" xmlns="http://www.w3.org/2000/svg"
 width="225.000000pt" height="225.000000pt" viewBox="0 0 225.000000 225.000000"
 preserveAspectRatio="xMidYMid meet">
<metadata>
Created by potrace 1.14, written by Peter Selinger 2001-2017
</metadata>
<g transform="translate(0.000000,225.000000) scale(0.100000,-0.100000)"
fill="#000000" stroke="none">
<path d="M170 2151 c0 -54 -3 -125 -6 -159 -8 -69 -25 -85 -97 -88 -23 0 -48
-2 -54 -3 -10 -1 -13 -62 -13 -271 l0 -271 33 -14 32 -14 -35 -1 c-42 -1 -25
-15 33 -25 31 -6 37 -4 37 10 0 11 7 15 21 13 20 -3 21 -8 20 -156 -1 -84 -4
-158 -6 -165 -3 -7 -9 -106 -14 -221 -6 -115 -13 -211 -16 -214 -12 -12 -18
11 -24 100 -4 54 -14 108 -24 127 -24 48 -23 91 3 91 11 0 20 7 20 15 0 18
-16 20 -26 4 -4 -8 -9 -7 -16 2 -6 9 -8 -6 -6 -44 2 -31 -1 -58 -6 -60 -13 -4
-18 -125 -23 -499 l-4 -308 1125 0 1126 0 0 1125 0 1125 -1040 0 -1040 0 0
-99z m1865 -1268 c-2 -10 -4 -21 -4 -25 -2 -21 -21 -5 -21 17 0 15 6 25 14 25
8 0 13 -8 11 -17z m-85 -43 c0 -5 -2 -10 -4 -10 -3 0 -8 5 -11 10 -3 6 -1 10
4 10 6 0 11 -4 11 -10z m-23 -182 c-3 -8 -6 -5 -6 6 -1 11 2 17 5 13 3 -3 4
-12 1 -19z"/>
<path d="M100 2191 c0 -12 -4 -21 -9 -21 -4 0 -3 -15 3 -34 7 -22 13 -30 18
-23 11 18 10 85 -2 92 -5 3 -10 -3 -10 -14z"/>
<path d="M60 1920 c0 -5 4 -10 9 -10 6 0 13 5 16 10 3 6 -1 10 -9 10 -9 0 -16
-4 -16 -10z"/>
<path d="M60 1270 c0 -5 5 -10 10 -10 6 0 10 5 10 10 0 6 -4 10 -10 10 -5 0
-10 -4 -10 -10z"/>
<path d="M50 1016 c0 -19 6 -36 13 -39 9 -3 11 6 9 34 -5 48 -22 52 -22 5z"/>
<path d="M0 850 c0 -22 5 -40 10 -40 6 0 10 18 10 40 0 22 -4 40 -10 40 -5 0
-10 -18 -10 -40z"/>
</g>
</svg>
